# xmcd CD database file
#
# Track frame offsets:
#	150
#	13753
#	29923
#	47267
#	62234
#	79763
#	96624
#	112907
#	127176
#	142706
#	158378
#	176073
#	193675
#	207371
#	222118
#
# Disc length: 3141 seconds
#
# Revision: 1
# Processed by: cddbd v1.5.1PL0 Copyright (c) Steve Scherf et al.
# Submitted via: CDex 1.51
#
DISCID=d20c430f
DTITLE=陳思安 - 祈禱
DYEAR=2003
DGENRE=New Age
TTITLE0=祈禱
TTITLE1=酒醉的探戈
TTITLE2=原諒我吧心上人
TTITLE3=情人的眼淚
TTITLE4=苦酒滿杯
TTITLE5=負心的人
TTITLE6=我沒有騙你
TTITLE7=枕畔留香
TTITLE8=三年
TTITLE9=千言萬語
TTITLE10=第二春
TTITLE11=夜夢
TTITLE12=一曲情未了
TTITLE13=月光小夜曲
TTITLE14=問彩虹
EXTD=YEAR: 2003
EXTT0=
EXTT1=
EXTT2=
EXTT3=
EXTT4=
EXTT5=
EXTT6=
EXTT7=
EXTT8=
EXTT9=
EXTT10=
EXTT11=
EXTT12=
EXTT13=
EXTT14=
PLAYORDER=
